<svg width="1064" height="848" viewBox="0 0 1064 848" fill="none" xmlns="http://www.w3.org/2000/svg">
<g clip-path="url(#clip0_15_22)">
<path d="M434.401 385.681C431.934 371.819 436.909 355.5 433.704 339.431C432.221 332.001 426.096 328.917 419.269 328.327C412.893 327.775 406.392 333.709 405.202 341.523C403.84 350.484 403.054 359.633 403.132 368.692C403.262 383.86 404.261 399.02 404.929 414.183C405.158 419.388 405.044 424.663 405.876 429.779C407.358 438.908 412.069 442.829 420.71 443.057C429.817 443.299 434.368 440.224 435.99 430.668C438.377 416.615 432.204 402.537 434.401 385.681ZM608.698 369.193C608.685 369.104 608.698 369.284 608.698 369.193C611.62 388.981 610.717 401.055 614.162 419.724C615.528 427.123 620.745 431.819 628.837 432.232C636.409 432.62 642.838 428.651 645.642 420.501C647.59 414.839 648.71 408.723 649.132 402.735C650.7 380.487 649.401 358.489 640.465 337.652C637.8 331.439 633.641 326.756 625.645 327.153C617.546 327.557 612.268 331.827 610.078 338.863C607.674 346.591 608.608 356.699 608.698 369.193ZM509.23 761.917C519.242 761.128 530.072 760.144 540.92 759.444C576.562 757.145 610.197 747.269 642.03 731.558C684.104 710.793 719.398 681.363 747.998 644.251C786.82 593.877 810.57 537.135 817.148 473.672C817.933 466.097 816.522 457.964 814.496 450.535C812.89 444.649 808.429 440.121 801.184 439.769C793.962 439.419 789.43 443.059 787.134 449.217C784.722 455.687 782.75 462.413 781.462 469.195C774.293 506.94 764.493 543.777 745.141 577.407C717.214 625.936 680.854 666.216 630.481 692.179C578.58 718.929 523.593 726.717 465.888 718.127C419.904 711.281 379.573 692.768 343.925 663.133C317.825 641.437 300.67 613.423 285.625 583.732C283.662 579.859 282.114 575.412 279.117 572.543C276.693 570.223 271.91 568.285 269.041 569.128C266.43 569.895 263.445 574.579 263.334 577.633C263.07 584.939 263.44 592.548 265.253 599.597C274.216 634.433 294.47 662.783 319.954 686.988C372.546 736.943 436.613 759.248 509.23 761.917ZM472.348 847.92C412.628 847.596 370.784 839.904 333.548 814.989C305.246 796.055 281.877 771.855 263.789 743.389C243.989 712.228 226.446 679.623 208.22 647.477C199.854 632.725 192.898 617.145 184.08 602.688C168.569 577.26 165.21 549.423 167.761 520.9C171.904 474.584 186.508 430.985 204.521 388.3C210.85 373.304 220.445 361.611 232.012 350.865C269.708 315.848 308.377 282.008 351.768 254.089C396.589 225.251 443.541 201.26 495.822 188.309C571.944 169.453 643.869 179.156 710.269 220.345C776.16 261.22 826.632 316.835 858.55 388.139C873.6 421.757 881.598 457.117 884.169 493.999C889.238 566.712 871.732 633.607 834.846 695.929C812.961 732.908 780.224 757.513 742.605 776.301C683.914 805.611 622.228 826.393 557.572 837.333C524.208 842.979 490.357 845.743 472.348 847.92Z" fill="#F08D13"/>
<path d="M509.23 761.917C436.613 759.248 372.546 736.943 319.954 686.988C294.47 662.783 274.216 634.433 265.253 599.597C263.44 592.548 263.07 584.939 263.334 577.633C263.445 574.579 266.43 569.895 269.041 569.128C271.91 568.285 276.693 570.223 279.117 572.543C282.114 575.412 283.662 579.859 285.625 583.732C300.67 613.423 317.825 641.437 343.925 663.133C379.573 692.768 419.904 711.281 465.888 718.127C523.593 726.717 578.579 718.929 630.481 692.179C680.854 666.216 717.214 625.936 745.141 577.407C764.493 543.777 774.293 506.94 781.462 469.195C782.75 462.413 784.722 455.687 787.134 449.217C789.43 443.059 793.962 439.419 801.184 439.769C808.429 440.121 812.89 444.649 814.496 450.535C816.522 457.964 817.933 466.097 817.147 473.672C810.57 537.135 786.82 593.877 747.998 644.251C719.398 681.363 684.104 710.793 642.03 731.559C610.197 747.269 576.562 757.145 540.92 759.444C530.072 760.144 519.242 761.128 509.23 761.917Z" fill="#1B241E"/>
<path d="M608.842 370.604C607.762 360.665 607.667 346.619 610.079 338.863C612.269 331.827 617.547 327.557 625.646 327.153C633.642 326.756 637.801 331.439 640.466 337.652C649.402 358.489 650.701 380.487 649.133 402.735C648.711 408.723 647.591 414.839 645.643 420.501C642.839 428.651 636.41 432.62 628.838 432.232C620.746 431.819 615.529 427.123 614.163 419.724C610.71 401.008 611.766 389.236 608.842 370.604Z" fill="#1C251E"/>
<path d="M434.402 385.681C433.94 391.764 438.378 416.615 435.991 430.668C434.368 440.224 429.818 443.299 420.711 443.057C412.07 442.829 407.359 438.908 405.876 429.779C405.044 424.663 405.159 419.388 404.93 414.183C404.262 399.02 403.263 383.86 403.132 368.692C403.055 359.633 403.84 350.484 405.203 341.523C406.392 333.709 412.894 327.775 419.27 328.327C426.096 328.917 432.222 332.001 433.704 339.431C436.91 355.5 434.402 385.681 434.402 385.681Z" fill="#1C261E"/>
<path d="M978.719 392.845C981.206 399.222 982.518 404.72 985.314 409.312C990.842 418.396 1008.57 421.824 1019.53 416.58C1027.06 412.976 1027.72 407.84 1022.33 393.98C1022.06 393.286 1021.12 392.854 1021.11 392.845C1007.12 392.845 993.775 392.845 978.719 392.845ZM910.017 394.923C912.365 401.608 913.526 407.082 916.098 411.786C921.482 421.636 940.207 426.018 952.315 420.837C960.686 417.254 961.49 411.921 955.941 396.076C955.697 395.38 954.783 394.917 954.79 394.923C939.989 394.923 925.815 394.923 910.017 394.923ZM872.598 334.668C876.787 331.548 880.929 332.172 884.403 335.546C890.359 341.332 897.566 341.389 905.111 341.146C935.163 340.178 965.221 339.321 995.278 338.553C1001.54 338.393 1006.85 337.325 1011.79 332.538C1017.3 327.197 1021.48 328.495 1024.87 335.531C1026.92 339.807 1028.24 344.46 1029.68 349.01C1036.34 370.136 1043.44 391.146 1049.32 412.488C1052.06 422.392 1053.46 432.952 1053.53 443.228C1053.62 456.299 1047.59 466.901 1034.9 472.095C1022.37 477.223 1009.94 476.308 999.143 467.82C993.441 463.337 988.939 457.324 983.467 451.55C981.519 462.28 978.102 472.461 966.974 477.025C955.206 481.853 943.311 482.119 931.654 476.295C929.89 475.621 928.125 474.949 926.359 474.277C914.729 465.025 907.447 452.76 902.939 438.918C892.865 407.993 883.145 376.95 873.423 345.91C872.675 343.526 873.049 340.79 872.901 338.219C872.799 337.036 872.699 335.852 872.598 334.668Z" fill="#12110F"/>
<path d="M24.3695 544.745C37.3611 547.481 50.1518 550.175 63.3065 552.945C63.3909 531.236 56.6513 523.529 38.2133 522.265C28.8669 521.625 24.4939 525.296 23.7669 534.8C23.5403 537.764 24.1033 540.787 24.3695 544.745ZM9.45177 604.163C3.32991 602.149 2.45855 597.021 2.27939 591.637C1.395 565.077 0.152818 538.517 0.000735136 511.952C-0.0450982 503.907 2.05751 495.503 4.83199 487.864C9.42625 475.22 18.2049 466.34 32.5346 465.487C47.7799 464.579 59.5819 470.911 67.3357 484.145C69.7221 488.22 71.3699 492.727 73.7434 497.875C81.0529 476.204 96.0805 481.381 110.686 483.515C115.272 484.184 119.67 481.421 121.172 477.036L122.986 471.743C131.417 469.341 136.978 474.244 141.24 480.401C150.84 494.267 151.872 509.601 146.623 525.24C143.384 534.885 135.972 540.159 125.703 539.807C118.81 539.571 111.929 538.191 105.103 536.98C88.7199 534.076 85.6882 536.568 85.9466 553.256C85.9663 554.544 86.2409 555.829 86.571 558.551C99.0778 561.619 111.937 565.116 124.977 567.696C127.731 568.241 131.403 565.832 134.19 564.057C137.011 562.259 139.258 559.56 143.439 555.705C149.164 557.881 149.164 557.881 149.138 572.212C149.099 593.544 150.703 608.408 151.139 629.737C151.198 632.62 150.242 636.069 147.346 638.889C144.37 637.683 142.118 637.507 141.378 636.357C134.335 625.415 123.14 622.856 111.495 620.187C87.359 614.652 63.4158 608.28 39.3695 602.348C23.5581 598.447 23.5398 598.521 9.45177 604.163Z" fill="#12110F"/>
<path d="M204.286 283.208C209.307 287.083 216.58 286.893 220.904 282.252C225.291 277.543 225.471 273.073 222.583 265.292C211.719 236.016 194.038 210.928 172.915 188.179C169.21 184.188 163.679 180.631 159.187 184.351C155.432 187.46 152.535 193.648 152.402 198.557C152.246 204.288 154.363 210.833 157.483 215.768C170.667 236.621 184.331 257.188 198.435 277.431C199.97 279.635 202.032 281.471 204.286 283.208ZM256.984 236.656C256.047 269.431 242.592 294.82 217.855 313.959C198.551 328.893 177.638 329.028 159.076 313.989C122.051 283.987 96.3524 222.387 142.458 168.681C146.947 163.452 152.156 158.633 157.723 154.569C178.047 139.731 199.583 140.089 218.562 156.659C242.963 177.961 255.979 205.151 256.984 236.656Z" fill="#12110F"/>
<path d="M522.555 46.5093C521.927 46.3586 526.008 27.1933 514.476 24.3546C509.807 23.2053 503.124 25.2666 499.56 28.4573C495.344 32.232 492.359 38.3813 490.884 44.0346C486.085 62.4186 481.911 80.984 478.136 99.608C476.513 107.621 476.044 115.944 475.848 124.144C475.724 129.3 476.671 135.037 482.781 136.813C488.683 138.528 494.375 136.773 497.821 131.724C501.429 126.439 505.14 120.703 506.689 114.624C512.449 92.0386 517.339 69.232 522.555 46.5093ZM477.779 158.147C472.281 157.713 466.992 157.8 461.912 156.809C435.517 151.667 420.803 132.791 421.487 104.239C421.916 86.2987 425.745 68.932 433.768 52.7173C452.913 14.0186 499.892 -8.08269 539.809 2.74265C560.999 8.48798 572.903 22.48 575.143 44.272C580.788 99.196 546.824 146.425 494.353 156.399C488.832 157.448 483.141 157.603 477.779 158.147Z" fill="#12110F"/>
<path d="M61.2147 337.213C52.9304 344.947 53.6059 352.084 57.8846 358.807C61.1028 363.864 64.9543 369 69.6975 372.52C88.4657 386.445 107.643 399.825 126.815 413.199C129.582 415.129 133.067 416.169 136.355 417.187C146.515 420.329 153.464 415.268 151.041 405.049C149.455 398.36 145.1 391.479 140.113 386.597C121.75 368.62 80.0772 342.605 78.6376 341.612C73.0548 337.761 67.9642 334.505 61.2147 337.213ZM30.0908 367.32C30.695 347.223 35.7256 328.553 46.9512 311.907C59.9684 292.604 79.333 286.1 101.591 292.908C161.304 311.172 190.747 376.544 164.193 431.908C149.532 462.476 123.163 472.437 92.9985 457.515C62.5121 442.435 39.9184 419.992 32.3966 385.363C31.1147 379.46 30.834 373.34 30.0908 367.32Z" fill="#12110F"/>
<path d="M926.36 474.277C928.125 474.949 929.89 475.621 931.654 476.295C931.336 485.201 937.212 489.423 944.366 491.919C975.102 502.639 1005.8 513.505 1036.85 523.263C1043.15 525.244 1050.89 522.657 1059.59 522.068C1063.86 524.1 1063.89 529.391 1063.62 534.675C1061.91 567.725 1060.4 600.791 1058.26 633.813C1057.37 647.563 1049.98 652.244 1036.92 648.423C1029.84 646.352 1022.91 643.772 1015.96 641.301C1010.31 639.296 1007.93 635.041 1008 629.184C1008.09 622.876 1010.55 618.135 1016.91 616.343C1023.51 614.483 1030.21 612.957 1037.46 611.137C1038.26 601.283 1038.99 592.256 1039.83 581.856C1027.3 577.476 1014.73 573.084 1002.17 568.697C998.352 576.748 1001.89 582.38 1006.63 587.996C1011.79 594.103 1016.76 600.536 1009.65 610.225C1006.87 610.007 1002.95 610.364 999.476 609.289C991.192 606.732 983.164 603.359 974.941 600.585C969.266 598.671 964.498 596.203 963.825 589.399C963.116 582.221 967.796 579.229 973.426 577.36C980.973 574.856 983.845 570.165 981.334 561.668C967.014 556.857 952.313 551.919 937.056 546.795C933.044 563.292 934.477 577.079 948.584 587.867C953.285 591.463 957.988 596.421 959.984 601.768C961.67 606.281 960.784 612.907 958.6 617.419C956.024 622.737 950.49 619.943 945.796 618.667C940.029 617.1 934.018 616.432 928.114 615.375C925.301 614.427 922.488 613.477 919.673 612.528C913.102 603.316 911.568 593.161 912.33 581.936C914.452 550.707 915.912 519.432 917.476 488.167C917.801 481.657 918.782 475.961 926.36 474.277Z" fill="#131110"/>
<path d="M109.523 707.265C103.572 692.82 100.641 688.217 94.3237 686.419C80.9675 682.616 67.7076 684.201 54.9753 689.268C48.8836 691.692 46.8956 696.899 48.9628 703.159C50.1221 706.673 51.9024 709.983 53.4877 713.576C72.4539 711.44 90.4019 709.419 109.523 707.265ZM130.392 704.559C139.748 703.489 148.866 702.951 157.735 701.173C161.062 700.507 164.306 697.381 166.678 694.603C168.79 692.128 170.804 689.005 172.05 683.343C180.066 682.896 180.43 688.313 181.79 691.381C190.23 710.431 198.331 729.644 205.856 749.077C208.412 755.677 207.751 756.455 205.995 759.46C205.995 759.46 201.294 761.739 195.792 757.968C188.927 753.263 182.112 752.975 174.639 753.836C143.496 757.429 112.333 760.863 81.2363 764.822C77.3148 765.32 73.2721 768.016 70.1044 770.67C61.9409 777.512 58.2789 777.7 54.3915 768.618C42.9445 741.877 31.2211 715.186 21.4456 687.819C13.8779 666.632 20.7476 648.512 36.9284 640.127C46.7815 635.021 57.4623 633.107 68.5815 634.587C83.0763 636.516 95.3607 643.092 103.984 654.681C110.927 664.012 116.436 674.472 122.003 684.745C125.281 690.792 127.431 697.449 130.392 704.559Z" fill="#12110F"/>
<path d="M919.673 612.528C922.487 613.477 925.301 614.427 928.114 615.375C936.163 622.436 943.703 630.216 952.391 636.376C963.39 644.175 962.877 659.225 946.794 663.624C939.686 665.567 932.613 667.645 925.571 669.816C916.547 672.6 910.499 678.815 908.23 687.727C907.301 691.375 908.122 696.532 910.201 699.62C912.982 703.749 918.142 704.733 923.047 702.129C927.249 699.9 931.478 697.669 935.43 695.043C942.305 690.472 948.803 685.323 955.769 680.904C971.234 671.092 987.227 668.628 1003.55 678.933C1020.29 689.508 1027.1 705.249 1025.72 724.491C1024.36 743.513 1015.74 759.329 1002.28 772.613C999.51 775.351 996.573 777.921 993.21 781.032C995.305 792.544 1001.63 805.525 985.779 814.309C972.681 807.206 961.949 797.042 951.25 787.048C946.094 782.231 947.755 774.789 954.594 770.591C959.31 767.694 965.115 766.637 970.115 764.125C977.409 760.461 985.098 757.07 991.362 752.009C998.125 746.545 998.763 738.4 994.785 733.448C991.074 728.83 984.561 728.123 977.03 732.817C965.611 739.934 954.973 748.334 943.39 755.148C917.967 770.105 888.234 758.565 879.386 730.452C875.65 718.58 876.407 706.46 879.911 694.471C885.621 674.931 896.135 659.044 914.782 648.741C913.142 643.013 911.311 637.752 910.155 632.345C908.085 622.653 910.65 617.66 919.673 612.528Z" fill="#12110F"/>
<path d="M270.42 238.896C270.843 234.329 270.249 230.393 271.672 227.424C274.948 220.591 274.295 214.18 272.451 207.187C265.139 179.465 257.987 151.699 251.233 123.837C249.119 115.116 247.051 106.996 237.952 102.841C236.619 102.232 232.896 99.7986 230.967 97.0373C234.828 93.6386 241.212 90.0267 245.416 87.5413C272.723 71.396 300.125 55.4067 327.691 39.7107C342.869 31.068 349.801 34.12 354.443 50.716C355.963 56.1533 357.26 61.6626 358.413 67.1893C360.255 76.0173 358.143 80.3786 351.043 84.5786C344.14 88.6613 338.635 86.4826 333.456 81.4813C329.731 77.8813 325.943 74.3467 321.271 69.9187C313.164 74.3933 305.345 78.708 296.643 83.5107C300.392 98.1227 304.019 112.26 307.645 126.397C308.573 126.749 309.501 127.101 310.429 127.453C313.185 123.577 316.324 119.911 318.599 115.769C321.297 110.86 322.447 104.908 325.811 100.619C328.088 97.7173 333.155 95.3586 336.733 95.656C339.472 95.884 343.171 100.252 344.121 103.467C347.567 115.113 350.22 127.008 352.784 138.893C353.919 144.148 353.451 149.26 348.235 152.811C342.973 156.391 338.141 154.6 333.612 151.791C327.156 147.788 321 142.904 313.888 151.605C316.091 160.015 318.791 168.729 320.581 177.627C322.185 185.596 324.877 191.545 334.219 192.416C336.672 192.645 338.885 195.467 341.139 197.048C335.319 207.896 286.925 237.088 270.42 238.896Z" fill="#131110"/>
<path d="M627.473 15.3493C631.253 12.452 631.253 12.452 640.246 15.48C671.526 26.0093 704.279 31.5293 736.174 40.0186C751.087 43.9893 754.13 51.8772 746.773 65.2652C743.635 70.9732 740.325 76.5959 736.869 82.1173C733.254 87.8919 728.175 90.3106 721.283 88.3866C714.781 86.5706 710.482 83.0693 710.123 75.8159C709.825 69.7706 709.303 63.7346 708.799 56.5439C704.101 55.2226 699.65 53.9132 695.166 52.7266C691.029 51.6332 686.855 50.6719 681.803 49.4346C674.235 62.3999 666.907 74.9533 659.579 87.5079C660.175 88.4533 660.773 89.3986 661.369 90.3439C666.883 89.0186 672.446 87.8639 677.897 86.3173C682.851 84.9119 687.599 82.0839 692.59 81.6572C701.315 80.9132 706.367 87.4146 702.529 95.0026C696.467 106.988 689.591 118.677 681.913 129.692C675.975 138.209 665.446 136.169 661.35 126.544C660.335 124.16 659.883 121.54 659.111 119.048C656.869 111.82 656.857 111.824 646.851 109.285C641.498 118.296 635.434 127.289 630.782 136.961C629.037 140.592 630.081 145.88 630.793 150.26C631.245 153.039 633.427 155.536 634.57 157.668C632.094 164.695 626.854 164.035 622.334 162.931C602.515 158.093 582.746 153.028 563.102 147.536C560.397 146.779 556.793 143.22 556.707 140.849C556.627 138.597 560.209 135.044 562.899 134.087C570.51 131.379 574.711 125.867 578.509 119.259C591.281 97.0346 604.341 74.9759 617.31 52.8652C627.535 35.4319 627.547 35.44 627.473 15.3493Z" fill="#12110F"/>
<path d="M838.775 197.98C844.985 196.279 849.587 195.369 853.931 193.763C868.587 188.339 882.981 182.139 897.823 177.308C905.506 174.808 914.01 173.145 921.991 173.623C935.658 174.44 947.457 188.772 945.53 200.107C943.134 214.204 928.053 224.043 914.133 220.559C904.033 218.031 899.547 210.524 897.485 200.065C879.267 206.457 861.703 212.559 844.183 218.785C828.637 224.312 813.149 230 797.614 235.56C795.161 236.437 792.625 237.116 790.086 237.711C781.674 239.681 773.469 240.079 767.375 232.487C761.398 225.04 764.519 217.595 768.407 210.612C783.841 182.897 799.447 155.279 815.015 127.639C819.289 120.053 823.175 112.791 822.226 103.211C821.375 94.6147 827.898 91.7066 835.066 97.3387C850.127 109.172 864.938 121.361 879.306 134.025C886.107 140.021 884.703 145.933 875.775 148.053C867.922 149.917 864.155 154.788 860.602 160.972C853.91 172.62 846.969 184.124 838.775 197.98Z" fill="#131110"/>
<path d="M872.598 334.668C872.699 335.852 872.799 337.036 872.901 338.219C864.347 339.32 858.567 336.059 853.933 328.497C846.001 315.555 836.981 303.283 828.583 290.619C826.267 287.124 824.541 283.237 822.883 280.164C826.681 273.207 831.307 275.473 836.069 275.952C842.282 276.576 849.057 277.301 854.841 275.533C882.593 267.045 910.067 257.656 937.697 248.757C946.142 246.037 954.117 243.107 957.647 233.811C958.139 232.515 959.665 231.029 961.53 231.029C973.311 237.028 1002.93 280.957 1003.37 294.176C999.598 293.935 995.49 294.721 992.457 293.267C985.415 289.891 979.007 291.428 972.294 293.677C943.542 303.311 914.759 312.856 885.987 322.429C879.702 324.52 873.402 326.587 872.598 334.668Z" fill="#131110"/>
</g>
<defs>
<clipPath id="clip0_15_22">
<rect width="1063.71" height="847.92" fill="white"/>
</clipPath>
</defs>
</svg>
